PathFileType	3	(X/Y/Z)	C:\Users\koon_\Desktop\
DataRate	CameraRate	NumFrames	NumMarkers	Units	OrigDataRate	OrigDataStartFrame	OrigNumFrames
100.0	100.0	11	27	mm	100.0	3236	5176	
Frame#	Time	get:LFHD			get:RFHD			get:LBHD			get:RBHD			get:C7			get:T10			get:CLAV			get:STRN			get:RBAK			get:LSHO			get:LUPA			get:LELB			get:LFRA			get:LWRA			get:LWRB			get:LFIN			get:RSHO			get:RUPA			get:RELB			get:RFRA			get:RWRA			get:RWRB			get:RFIN			get:LASI			get:RASI			get:LPSI			get:RPSI			
		X1	Y1	Z1	X2	Y2	Z2	X3	Y3	Z3	X4	Y4	Z4	X5	Y5	Z5	X6	Y6	Z6	X7	Y7	Z7	X8	Y8	Z8	X9	Y9	Z9	X10	Y10	Z10	X11	Y11	Z11	X12	Y12	Z12	X13	Y13	Z13	X14	Y14	Z14	X15	Y15	Z15	X16	Y16	Z16	X17	Y17	Z17	X18	Y18	Z18	X19	Y19	Z19	X20	Y20	Z20	X21	Y21	Z21	X22	Y22	Z22	X23	Y23	Z23	X24	Y24	Z24	X25	Y25	Z25	X26	Y26	Z26	X27	Y27	Z27	
3236	32.35	114.4859	1571.5463	-50.897705	-42.467434	1567.2023	-44.654106	104.02962	1568.5078	-175.63399	-22.130283	1576.804	-189.93193	26.917339	1376.5096	-221.99422	26.612312	1126.2838	-240.91727	34.786613	1313.7871	-26.451256	41.884655	1127.1222	18.145468	-48.719677	1321.4025	-240.85521	161.5892	1395.1847	-146.90616	296.10992	1345.972	-172.86304	405.76913	1267.8306	-211.80496	344.48517	1357.269	-216.60626	312.8114	1434.6478	-233.1611	373.59491	1463.4795	-229.32544	323.28018	1531.0165	-270.6127	-97.348259	1387.1692	-128.13377	-280.11859	1317.387	-83.252327	-376.13327	1294.0037	-93.259987	-345.4223	1250.5997	-0.87724727	-379.94061	1161.9701	119.20183	-437.90607	1206.0636	119.37231	-402.75479	1166.8586	199.28957	153.13245	933.86206	-46.125237	-121.66563	925.69751	-54.016834	73.496155	963.31409	-245.53809	-34.080269	954.89038	-249.95341
3237	32.36	115.11639	1571.421	-50.491657	-41.821262	1567.262	-44.127808	104.50939	1568.4359	-175.28032	-22.038036	1576.6951	-189.29979	26.858438	1376.714	-221.58025	26.46204	1126.3746	-240.89511	35.227951	1313.7416	-25.175365	42.233822	1126.8569	18.018959	-49.164993	1321.9547	-240.58717	161.92761	1394.9473	-146.96095	296.23465	1345.1682	-173.30885	405.00656	1266.8972	-212.45813	342.03983	1355.2463	-216.54402	308.92761	1432.0441	-232.77487	369.45319	1462.0406	-229.6725	317.2674	1528.4486	-270.52594	-97.366753	1387.3269	-127.18199	-279.50751	1312.7505	-80.907455	-375.54916	1287.64	-91.197411	-344.98102	1241.2191	0.9336834	-380.35028	1146.58	115.69366	-438.12082	1190.5042	117.32489	-404.32697	1147.938	195.43938	153.24506	933.84119	-46.323566	-121.5718	925.66797	-53.962708	73.496178	963.33838	-245.64386	-34.12286	954.8739	-249.93552
3238	32.37	115.70405	1571.2947	-50.197075	-41.216389	1567.319	-43.630802	105.03604	1568.416	-174.8992	-21.253201	1577.0083	-188.86565	26.748837	1376.9128	-221.16301	26.247854	1126.5297	-240.83206	35.735203	1313.4091	-24.321913	42.599003	1126.6404	17.8055	-49.693775	1322.4167	-240.16278	162.31517	1394.7097	-146.99789	296.31799	1344.2344	-173.84187	404.5556	1265.9246	-213.52342	339.65823	1353.0328	-216.48119	305.20139	1429.2711	-232.41768	365.3045	1460.201	-229.99136	311.52213	1525.7231	-270.37085	-97.455864	1387.4147	-126.10656	-278.77917	1307.9279	-78.733688	-374.87158	1280.8069	-89.358833	-344.45825	1231.2183	1.5816774	-380.77188	1131.1932	111.52552	-438.75342	1174.9363	114.43333	-405.88303	1129.6188	191.11029	153.34956	933.85217	-46.522125	-121.48933	925.65503	-53.928799	73.387535	963.38525	-245.74364	-34.15749	954.97876	-250.03799
3239	32.38	116.34221	1571.1799	-49.783424	-40.602631	1567.351	-43.095543	105.49911	1568.3816	-174.54143	-20.739008	1577.1239	-188.40645	26.540167	1377.1918	-220.69542	25.984484	1126.6128	-240.80804	36.168392	1313.1683	-25.153597	42.943363	1126.3721	17.791052	-50.040684	1322.791	-239.46506	162.76794	1394.4624	-147.07318	296.76947	1343.1372	-173.91342	403.47	1264.5836	-214.16264	337.10257	1350.6902	-216.59599	301.61276	1426.3525	-232.10173	361.28323	1458.2079	-230.34442	306.10028	1522.8433	-270.16476	-97.671936	1387.2837	-124.93753	-277.96909	1303.0698	-76.849098	-374.05371	1273.5719	-87.582947	-343.83319	1220.9611	1.1169525	-381.52573	1116.6033	106.7927	-439.39655	1159.5206	110.89614	-407.43869	1111.8243	186.17014	153.48572	933.84045	-46.772797	-121.39681	925.60138	-53.830799	73.316216	963.46649	-245.92793	-34.292439	955.04401	-249.99026
3240	32.39	116.9529	1571.0712	-49.438843	-39.94437	1567.3486	-42.57	105.9925	1568.3782	-174.16643	-20.20155	1577.2609	-187.91115	26.218069	1377.4008	-219.91948	25.681467	1126.7003	-240.75587	36.724236	1312.8987	-24.985823	43.315353	1126.1317	17.722044	-50.389488	1323.1018	-238.5936	163.20267	1394.2184	-147.22099	296.77905	1341.9639	-174.76305	402.66599	1263.0785	-215.05426	335.00174	1348.2189	-216.88287	298.31824	1423.5319	-232.59332	357.48373	1455.9935	-230.68143	300.95209	1519.9564	-269.90857	-97.976257	1387.0667	-123.66914	-277.12299	1297.7802	-75.079231	-373.11316	1266.1698	-86.650177	-343.13901	1210.9934	0.74992609	-380.96295	1102.5046	102.75224	-439.94604	1144.3619	106.75446	-408.90091	1094.1957	180.65602	153.61253	933.82819	-47.104492	-121.30181	925.56592	-53.71236	73.139885	963.51691	-246.01288	-34.439838	955.15179	-250.04041
3241	32.4	117.67577	1570.9818	-49.062126	-39.352409	1567.4181	-42.076893	106.50334	1568.3213	-173.74866	-19.766039	1577.287	-187.29483	25.832096	1377.6282	-219.24168	25.317553	1126.818	-240.65535	37.310055	1312.6796	-24.600681	43.746826	1125.9127	17.859575	-50.834724	1323.3383	-237.59923	163.65062	1393.9158	-147.36337	296.66019	1340.7172	-175.83347	401.78271	1261.4365	-216.03198	332.57028	1345.6392	-217.25435	295.20819	1420.3815	-232.21123	353.8107	1453.6807	-231.0903	296.01477	1517.0577	-269.61047	-98.31852	1386.808	-122.26349	-276.22888	1292.1787	-73.537895	-371.98978	1258.4365	-85.939972	-342.49506	1201.074	-0.094490618	-380.58093	1088.4618	97.930374	-440.27667	1129.4525	102.06326	-410.18454	1076.9121	174.6188	153.75137	933.80267	-47.354656	-121.18372	925.50385	-53.493031	72.95282	963.57617	-246.11107	-34.636417	955.18976	-249.9729
3242	32.41	118.24378	1570.9097	-48.712536	-38.693398	1567.4808	-41.493687	106.99234	1568.2838	-173.34863	-19.319191	1577.3564	-186.75749	25.438042	1377.8477	-218.51419	24.960361	1126.915	-240.52116	37.898037	1312.4263	-24.219877	44.219055	1125.6638	17.936745	-51.434845	1323.6488	-236.97707	164.11017	1393.5447	-147.54211	296.70776	1339.4275	-176.56052	400.91602	1259.6127	-217.01094	330.8356	1342.9568	-217.5921	292.08328	1417.1576	-232.61713	350.37085	1451.3033	-231.57663	291.22714	1514.2125	-269.37762	-98.668221	1386.4777	-120.87617	-275.28824	1286.2782	-72.361977	-370.72736	1250.481	-85.619553	-341.6452	1191.2445	-0.95297843	-379.97101	1074.6399	92.756111	-440.31815	1114.6774	96.878525	-411.36295	1059.8351	168.10136	153.89789	933.76831	-47.693199	-121.05052	925.47485	-53.314564	72.713501	963.66479	-246.32336	-34.834972	955.25427	-249.87349
3243	32.42	118.86575	1570.8024	-48.331135	-38.049484	1567.5377	-40.897156	107.44419	1568.2046	-172.96994	-18.807919	1577.4189	-186.22156	25.097036	1378.0366	-217.81038	24.497311	1126.9855	-240.41063	38.383179	1312.1277	-23.777744	44.696316	1125.3707	18.104658	-52.084469	1323.6123	-235.94673	164.56317	1393.125	-147.63977	296.67059	1338.049	-177.46997	400.24429	1257.7794	-218.444	328.85034	1340.2881	-218.05859	289.19547	1414.1575	-232.85936	347.13931	1448.868	-232.09944	286.67728	1511.3003	-269.17679	-99.000221	1386.1682	-119.51225	-274.45676	1280.3789	-71.349609	-369.3378	1242.3685	-85.780785	-340.66544	1181.4559	-1.5907837	-379.24719	1060.769	87.030273	-440.05414	1100.125	91.28009	-412.16617	1043.0491	161.0087	154.04497	933.77362	-48.02914	-120.93719	925.39691	-53.036182	72.428665	963.74829	-246.43668	-35.09473	955.39142	-249.84636
3244	32.43	119.56908	1570.7092	-47.963757	-37.418995	1567.5986	-40.330864	107.90134	1568.1376	-172.61986	-18.324799	1577.4735	-185.73898	24.780663	1378.0854	-217.05699	24.061447	1127.0649	-240.28201	38.814663	1311.7935	-23.548485	45.219227	1125.0752	18.319765	-52.740074	1323.521	-234.98175	165.04936	1392.7371	-147.77319	295.92682	1336.4978	-179.39728	398.95154	1255.7188	-219.43279	326.95032	1337.8591	-218.86285	286.50632	1410.899	-232.8714	344.08377	1446.3954	-232.60863	282.32886	1508.3485	-268.98004	-99.371803	1385.7916	-118.23447	-273.711	1274.6191	-70.633209	-367.87582	1234.2162	-86.325432	-339.51883	1171.4563	-3.1069589	-378.1593	1046.9604	80.88018	-439.47351	1085.6775	85.284348	-412.58997	1026.4371	153.65114	154.18703	933.70087	-48.369106	-120.82984	925.3349	-52.741703	72.14669	963.81158	-246.62233	-35.346348	955.46014	-249.71558
3245	32.44	120.21312	1570.6331	-47.511059	-36.75592	1567.6831	-39.702255	108.39133	1568.0419	-172.18564	-17.80966	1577.5674	-185.16461	24.451271	1378.0688	-216.2643	23.571846	1127.0355	-240.0713	39.214169	1311.4888	-23.238777	45.799492	1124.7429	18.537868	-53.335667	1323.5374	-234.26947	165.53444	1392.3453	-147.90071	295.88104	1335.0229	-180.2453	397.95276	1253.6932	-220.74243	325.28009	1335.4803	-219.476	284.02985	1407.8981	-233.12424	341.13553	1443.9863	-233.15854	278.22949	1505.4194	-268.82529	-99.859138	1385.2612	-116.99622	-272.78912	1268.9557	-70.15696	-366.28369	1226.1372	-87.132423	-337.91562	1161.1233	-5.1026955	-376.93839	1033.291	74.301117	-438.60571	1071.4604	78.943962	-412.61166	1010.1707	145.46663	154.37003	933.71417	-48.683048	-120.67842	925.22778	-52.38715	71.827431	963.85388	-246.68915	-35.662777	955.54218	-249.64088
3246	32.45	120.79225	1570.4398	-47.161903	-36.140369	1567.7925	-39.124283	108.82015	1567.9187	-171.81412	-17.407505	1577.5956	-184.45529	24.100687	1378.0781	-215.68069	23.06226	1127.0607	-239.89908	39.659519	1311.187	-22.947735	46.347672	1124.4448	18.537144	-53.882053	1323.5751	-233.61826	166.02242	1391.9677	-148.0313	295.75546	1333.5161	-181.2453	396.84384	1251.6932	-222.18063	323.37479	1333.0576	-220.32381	281.68353	1404.9713	-233.63568	338.40112	1441.6556	-233.67078	274.42957	1502.515	-268.72455	-100.39246	1384.5532	-115.69205	-271.81357	1263.4402	-69.927803	-364.44803	1218.0149	-87.705727	-335.93561	1150.7339	-7.7270708	-375.41373	1019.8213	67.307365	-437.78711	1057.4417	71.321785	-412.17212	993.97211	136.57919	154.54768	933.71124	-48.983383	-120.5504	925.13147	-51.98119	71.490242	963.92029	-246.80391	-36.006317	955.60876	-249.4904
